# xmcd
#
# Track frame offsets:
#	150
#	36791
#	58474
#	80764
#	117139
#	149166
#	179540
#	219496
#	253343
#	281093
#
# Disc length: 4305
#
# Revision: 5
# Processed by: cddbd v1.5.1PL0 Copyright (c) Steve Scherf et al.
# Submitted via: tcd 2.0b
# Normalized: r4:TDELIM( - )
#
DISCID=a810cf0a
DTITLE=Dj Mindlocker Dance Music Volume 5
DYEAR=1900
DGENRE=
TTITLE0=Dajae - Everyday In My Life
TTITLE1=Afromedusa - Pasilda
TTITLE2=Modjo - Chillin'
TTITLE3=Roger Sanchez - Another Chance
TTITLE4=Jakatta - American Dream
TTITLE5=Silicone Soul - Right On Right On
TTITLE6=Deep Swing - In The Music
TTITLE7=Sono - Keep Control
TTITLE8=Steve Lawer - Love You Some More
TTITLE9=Kosheen - Hide You
EXTD=
EXTT0=
EXTT1=
EXTT2=
EXTT3=
EXTT4=
EXTT5=
EXTT6=
EXTT7=
EXTT8=
EXTT9=
PLAYORDER=
